<svg width="56" height="36" viewBox="0 0 56 36" fill="none"
  xmlns="http://www.w3.org/2000/svg">
  <g clip-path="url(#clip0_4705_16661)">
    <path d="M30.354 13.1508V17.1443L43.0611 14.9723L55.7691 17.1443V13.1508L43.0611 8.98376L30.354 13.1508Z" fill="#D591FE"/>
    <path d="M43.0611 0.0012207L30.354 7.16027V11.1539L43.0611 5.98969L55.7691 11.1539V7.16027L43.0611 0.0012207Z" fill="#D591FE"/>
    <path d="M20.6382 8.90101C19.1242 7.99273 17.3074 7.53859 15.1878 7.53857C13.0033 7.53784 10.8652 8.16876 9.03105 9.35533C7.81157 10.114 6.75676 11.1097 5.92911 12.2834L5.75069 8.14414H-0.00244141V36.0014H6.00301V19.2913C6.91247 17.2059 7.95544 15.6434 9.13193 14.6037C10.6123 13.2915 12.2608 12.6355 14.0775 12.6355C15.6589 12.6355 16.9374 13.1738 17.9131 14.2506C18.9224 15.3271 19.4271 16.7738 19.4271 18.5905V36.0014H25.4325V18.2372C25.4324 16.0841 25.0118 14.2168 24.1708 12.6355C23.4007 11.0602 22.1683 9.75734 20.6382 8.90101Z" fill="#1E2125"/>
  </g>
  <defs>
    <clipPath id="clip0_4705_16661">
      <rect width="55.7716" height="36" fill="white"/>
    </clipPath>
  </defs>
</svg>
